<?xml version="1.0" encoding="utf-8"?>
<!-- Generator: Adobe Illustrator 18.1.1, SVG Export Plug-In . SVG Version: 6.00 Build 0)  -->
<svg version="1.1" id="Layer_1" xmlns="http://www.w3.org/2000/svg" xmlns:xlink="http://www.w3.org/1999/xlink" x="0px" y="0px"
	 viewBox="0 0 200 200" enable-background="new 0 0 200 200" xml:space="preserve">
<g>
	<path fill="#3B3B53" d="M47.9,68.6L47.9,68.6L47.9,68.6L47.9,68.6z"/>
	<path fill="#3B3B53" d="M141,64V51.8l-15.9-4.5c-0.9-3.4-1.9-6.4-3.7-9.4l0.2,0.1l8.4-14.9l-8.5-8.6L106.8,23l0.1,0
		c-2.9-1.7-6.1-2.8-9.4-3.7L92.8,3H80.7l-4.5,16h0c-3.3,1-6.5,2.3-9.4,4l0,0l-14.9-8.3l-8.6,8.6l8.6,15l0-0.2
		c-1.7,3-1.9,6.2-3.9,9.7v-0.2L32,52v12.1l16,4.5v0v0l0,0c0.9,3.5,3,6.3,4,9.4v0l-8.5,14.9l8.5,8.6L66.8,93l0-0.5
		c3.1,1.8,5.7,2.5,9.3,3.5h0l4.6,18h12.1l4.5-16.8c3.6-0.9,6.2-2.2,9.3-4l0-0.1l14.9,8.3l8.6-8.6L121.8,78l0.1,0
		c1.8-3.1,3.1-5.9,4.1-9.4v0.1L141,64z M89.1,87h-1.5c-1.7,0-3.2-0.3-4.9-0.5l33.5-33.2c0.5,1.7,0.7,3.2,0.7,4.9v1.5L89.1,87z
		 M115.3,65.9c-2.4,9.8-10.3,17.4-20,20L115.3,65.9z M59.1,54.7l25.4-25.4c1-0.2,2.2-0.2,3.4-0.2c0.7,0,1.7,0,2.4,0.2L59.1,60.6
		c-0.3-0.7-0.3-1.5-0.3-2.4C58.8,56.9,58.8,55.9,59.1,54.7z M60.8,48.1c2.9-7.8,9-13.9,16.9-16.9L60.8,48.1z M94.7,30.3
		c1.5,0.2,2.9,0.7,4.2,1.5L61,69.3c-0.5-1.5-1-2.7-1.2-4.2L94.7,30.3z M102.3,33.4c1.2,0.7,2.4,1.7,3.7,2.4L65.4,76.4
		c-1-1.2-1.7-2.5-2.5-3.7L102.3,33.4z M108.7,38.3c1,1,1.7,2.2,2.4,3.2L71,81.8c-1.2-0.7-2.2-1.7-3.2-2.7L108.7,38.3z M113.3,44.7
		c0.7,1.5,1.5,2.9,1.9,4.4L78.6,85.5c-1.5-0.5-2.9-1.2-4.4-1.9L113.3,44.7z"/>
	<g transform="translate(0,-952.36223)">
		<polygon fill="#4E4E89" points="53.2,1149.4 25,1120.8 39.8,1120.8 39.8,1084.6 45,1084.6 33.2,1072.6 21.4,1084.6 26.7,1084.6 
			26.7,1106.1 19.8,1106.1 19.8,1091.4 5.1,1091.4 33.2,1062.9 61.4,1091.4 46.6,1091.4 46.6,1127.7 41.4,1127.7 53.2,1139.6 
			64.9,1127.7 59.7,1127.7 59.7,1106.1 66.6,1106.1 66.6,1120.8 81.3,1120.8 		"/>
	</g>
	<path fill="#3B3B53" d="M184.9,91.4L184.9,91.4L184.9,91.4L184.9,91.4z"/>
	<path fill="#4E4E89" d="M195,147.3v-11.8l-15.2-4.4c-0.9-3.2-1.6-6.1-3.2-9l8.3-14.7l-8.3-8.3l-14.4,8.3l0.1,0.1
		c-2.8-1.6-5.9-2.4-9.2-3.3L148.6,89h-11.8l-4.4,16h0c-5,1.4-5.3,1.5-9.2,3.1l-14.5-8.6l-8.4,8.2l8.2,14.4c-1.6,2.8-2.8,5.8-3.8,9.1
		L88,135.7v11.8l17.3,4.4l0,0l0,0l0,0.1c0.9,3.4,1.8,5.7,2.7,9.1v0l-7.8,14.6l9,8.4l14.9-8.2c1.5,0.9,2.7,1.7,4,2.4s2.6,1.3,4.4,1.8
		h0l4.5,17h11.8l4.4-16.8c3.5-0.9,6.1-2.5,9.1-4.3l0-0.1l14.5,8.1l8.3-8.4l-8.1-14c1.7-3,3.1-6.3,4-9.7v0.1L195,147.3z M142.2,164.9
		c-12.7,0-23-10.3-23-23c0-12.7,10.3-23,23-23s23,10.3,23,23C165.3,154.6,155,164.9,142.2,164.9z"/>
</g>
</svg>
