<?xml version="1.0" encoding="utf-8"?>
<!-- Generator: Adobe Illustrator 18.1.1, SVG Export Plug-In . SVG Version: 6.00 Build 0)  -->
<svg version="1.1" id="Layer_1" xmlns="http://www.w3.org/2000/svg" xmlns:xlink="http://www.w3.org/1999/xlink" x="0px" y="0px"
	 viewBox="0 0 200 200" enable-background="new 0 0 200 200" xml:space="preserve">
<g>
	<path fill="#4E4E89" d="M170.9,30.3c-17.5,0-49.2-3.2-70.9-24.1C78.4,27.1,46.7,30.3,29.1,30.3c-7.9,0-13.1-0.7-13.1-0.7
		s0,33.7,0,82s84,82,84,82s84-33.7,84-82s0-82,0-82S178.8,30.3,170.9,30.3z M177,111.5c0,15-9.7,30.3-28.9,45.5
		c-17.8,14.1-37.9,23.5-45.7,26.9l-2.4,1l-2.4-1c-7.8-3.4-28-12.8-45.8-26.9C32.7,141.9,23,126.6,23,111.5V38h6.2
		c15.3,0,44.4-2.3,67.4-18.3l3.4-2.4l3.4,2.3c23,16,52.1,18.3,67.4,18.3h6.2V111.5z"/>
	<g>
		<path fill="#3B3B53" d="M120.6,59.4c1.6,1.2,3.1,2.6,4.4,4.2c0.5,0.6,1.2,0.8,1.8,0.8s1.2-0.2,1.7-0.6c1-0.8,1.1-2.4,0.2-3.5
			c-1.6-1.7-3.2-3.3-5-4.8c-1.1-0.8-2.6-0.7-3.5,0.4C119.3,57,119.5,58.5,120.6,59.4z"/>
		<path fill="#3B3B53" d="M64.1,107.3c1.3,0,2.4-1.1,2.4-2.4V85.5c0-18.4,14.9-33.4,33.4-33.4c5.1,0,10.2,1.2,14.8,3.5
			c1.2,0.6,2.6,0.1,3.2-1.1c0.6-1.2,0.1-2.6-1.1-3.2c-5.4-2.6-11-3.9-17-3.9c-21.1,0-38.2,17.2-38.2,38.2v19.2
			C61.6,106.1,62.8,107.3,64.1,107.3z"/>
		<path fill="#3B3B53" d="M116.7,145.4c-5,3-10.9,4.5-16.7,4.5c-18.4,0-33.4-14.9-33.4-33.4v-3.2c0-1.3-1.1-2.4-2.4-2.4
			c-1.3,0-2.4,1.1-2.4,2.4v3.2c0,21.1,17.2,38.2,38.2,38.2c6.7,0,13.4-1.8,19.1-5.1c1.2-0.7,1.6-2.2,0.8-3.3
			C119.3,145,117.7,144.7,116.7,145.4z"/>
		<path fill="#3B3B53" d="M135.8,100.5c-1.3,0-2.4,1.1-2.4,2.4v13.6c0,9.1-3.8,17.9-10.5,24.2c-1,1-1.1,2.5-0.1,3.5
			c0.5,0.5,1.1,0.7,1.8,0.7c0.6,0,1.2-0.2,1.7-0.7c7.6-7.2,12.1-17.3,12.1-27.8v-13.5C138.2,101.5,137.1,100.5,135.8,100.5z"/>
		<path fill="#3B3B53" d="M133,66.4c-0.7-1.2-2.2-1.6-3.3-0.8c-1.2,0.7-1.6,2.2-0.8,3.3c3,5,4.5,10.9,4.5,16.6v9
			c0,1.3,1.1,2.4,2.4,2.4c1.3,0,2.4-1.1,2.4-2.4v-9C138.2,78.8,136.4,72.2,133,66.4z"/>
		<path fill="#3B3B53" d="M117.7,133.7c-4.5,4.7-10.5,7.3-17.1,7.3h-1.6c-13,0-23.7-10.6-23.7-23.7v-6.8c0-1.3-1.1-2.4-2.4-2.4
			c-1.3,0-2.4,1.1-2.4,2.4v6.8c0,15.8,12.8,28.5,28.5,28.5h1.7c7.8,0,15.1-3.1,20.5-8.8c1-1,1-2.5-0.1-3.5
			C120.3,132.6,118.7,132.6,117.7,133.7z"/>
		<path fill="#3B3B53" d="M124.3,89v28.3c0,3.6-0.8,7-2.4,10.2c-0.6,1.2-0.1,2.6,1.2,3.2c0.4,0.1,0.7,0.2,1.1,0.2
			c1,0,1.8-0.5,2.2-1.4c1.9-3.8,2.9-8,2.9-12.3V89c0-1.3-1.1-2.4-2.4-2.4C125.5,86.6,124.3,87.7,124.3,89z"/>
		<path fill="#3B3B53" d="M113.6,59.3c-1.2-0.6-2.6-0.1-3.2,1.1c-0.6,1.2-0.1,2.6,1.1,3.3c6.9,3.6,11.7,10.3,12.8,17.9
			c0.1,1.2,1.2,2.2,2.4,2.2c0.1,0,0.2,0,0.4,0c1.3-0.1,2.3-1.4,2.2-2.7C127.8,71.7,122,63.6,113.6,59.3z"/>
		<path fill="#3B3B53" d="M75.5,84.7c0-13,10.6-23.7,23.7-23.7h1.7c1.2,0,2.5,0.1,3.7,0.2c1.3,0.2,2.6-0.7,2.7-2s-0.7-2.6-2-2.7
			c-1.4-0.2-3-0.4-4.5-0.4h-1.6c-15.8,0-28.5,12.8-28.5,28.5V88c0,1.3,1.1,2.4,2.4,2.4s2.4-1.1,2.4-2.4v-3.3H75.5z"/>
		<path fill="#3B3B53" d="M73.1,92.7c-1.3,0-2.4,1.1-2.4,2.4v7.8c0,1.3,1.1,2.4,2.4,2.4s2.4-1.1,2.4-2.4v-7.8
			C75.5,93.8,74.4,92.7,73.1,92.7z"/>
		<path fill="#3B3B53" d="M120.3,86.4c0-11.2-9.1-20.3-20.3-20.3c-6.6,0-12.8,3.2-16.6,8.6c-0.8,1.1-0.5,2.6,0.6,3.5
			c1.1,0.8,2.6,0.5,3.5-0.6c2.9-4.1,7.6-6.5,12.5-6.5c8.5,0,15.5,6.9,15.5,15.5V90c0,1.3,1.1,2.4,2.4,2.4c1.3,0,2.4-1.1,2.4-2.4
			V86.4z"/>
		<path fill="#3B3B53" d="M84.8,127.6c0.5,0,1-0.1,1.3-0.4c1.2-0.7,1.4-2.3,0.7-3.3c-1.6-2.5-2.4-5.3-2.4-8.2V86.4
			c0-1.3-1.1-2.4-2.4-2.4c-1.3,0-2.4,1.1-2.4,2.4v29.3c0,3.8,1.1,7.5,3.1,10.9C83.2,127.2,83.9,127.6,84.8,127.6z"/>
		<path fill="#3B3B53" d="M88.1,129.4c-0.7,1.1-0.5,2.6,0.7,3.3c3.3,2.2,7.2,3.3,11.1,3.3c11.2,0,20.3-9.1,20.3-20.3V97.8
			c0-1.3-1.1-2.4-2.4-2.4c-1.3,0-2.4,1.1-2.4,2.4v17.9c0,8.5-6.9,15.5-15.5,15.5c-3,0-5.9-0.8-8.4-2.5
			C90.4,127.9,88.8,128.2,88.1,129.4z"/>
		<path fill="#3B3B53" d="M108.9,95.4c1.3,0,2.4-1.1,2.4-2.4v-6.7c0-6.3-5.1-11.3-11.3-11.3c-6.3,0-11.3,5.1-11.3,11.3v1.2
			c0,1.3,1.1,2.4,2.4,2.4c1.3,0,2.4-1.1,2.4-2.4v-1.2c0-3.6,2.9-6.6,6.6-6.6c3.6,0,6.6,2.9,6.6,6.6v6.7
			C106.4,94.4,107.6,95.4,108.9,95.4z"/>
		<path fill="#3B3B53" d="M88.5,115.6c0,6.3,5.1,11.3,11.3,11.3c6.3,0,11.3-5.1,11.3-11.3v-15.2c0-1.3-1.1-2.4-2.4-2.4
			c-1.3,0-2.4,1.1-2.4,2.4v15.2c0,3.6-2.9,6.6-6.6,6.6c-3.6,0-6.6-2.9-6.6-6.6V95.1c0-1.3-1.1-2.4-2.4-2.4c-1.3,0-2.4,1.1-2.4,2.4
			V115.6z"/>
		<path fill="#3B3B53" d="M97.4,86.4v29.3c0,1.3,1.1,2.4,2.4,2.4c1.3,0,2.4-1.1,2.4-2.4V86.4c0-1.3-1.1-2.4-2.4-2.4
			C98.6,83.9,97.4,84.9,97.4,86.4z"/>
	</g>
</g>
</svg>
