<?xml version="1.0" encoding="utf-8"?>
<!-- Generator: Adobe Illustrator 18.1.1, SVG Export Plug-In . SVG Version: 6.00 Build 0)  -->
<svg version="1.1" id="Layer_1" xmlns="http://www.w3.org/2000/svg" xmlns:xlink="http://www.w3.org/1999/xlink" x="0px" y="0px"
	 viewBox="0 0 200 200" enable-background="new 0 0 200 200" xml:space="preserve">
<g>
	<path fill="#4E4E89" d="M96.5,87.9c22.5,0,40.8-18.3,40.8-40.8S119,6.2,96.5,6.2S55.7,24.6,55.7,47S74.1,87.9,96.5,87.9z
		 M105.7,80.8L130,56.5C127,68.3,117.5,77.5,105.7,80.8z M131.4,47c0,0.6,0,1.2,0,1.8L98.3,82c-0.6,0-1.2,0-1.8,0
		c-2.1,0-3.8-0.3-5.9-0.6l40.2-40.2C131.4,43.2,131.4,45,131.4,47z M127.6,30.8c0.9,1.8,1.8,3.5,2.4,5.3L85.6,80.2
		c-1.8-0.6-3.5-1.5-5.3-2.4L127.6,30.8z M124.9,26.9L76.4,75.7c-1.5-0.9-2.7-2.1-3.8-3.3L122,23.1C123.2,24.3,124.1,25.8,124.9,26.9
		z M84.4,14.5L64,34.9C67.5,25.5,74.9,18.1,84.4,14.5z M61.6,47c0-1.5,0-2.7,0.3-4.1l30.8-30.8c1.2-0.3,2.7-0.3,4.1-0.3
		c0.9,0,2.1,0,3,0.3L61.9,50C61.6,49.1,61.6,48.2,61.6,47z M62.8,55.6l42.3-42.3c1.8,0.3,3.5,0.9,5,1.8L64.3,60.7
		C63.7,58.9,63.1,57.4,62.8,55.6z M114.3,17.2c1.5,0.9,3,2.1,4.4,3L69.6,69.2c-1.2-1.5-2.1-3-3-4.4L114.3,17.2z"/>
	<path fill="#4E4E89" d="M43,146.7c-8,0-14.5,6.5-14.5,14.5c0,8,6.5,14.5,14.5,14.5s14.5-6.5,14.5-14.5
		C57.5,153.2,51,146.7,43,146.7z"/>
	<path fill="#4E4E89" d="M157.8,58c8,0,14.5-6.5,14.5-14.5S165.8,29,157.8,29c-8,0-14.5,6.5-14.5,14.5C143.3,51.5,149.8,58,157.8,58
		z M157.8,35.2c4.7,0,8.6,3.8,8.6,8.6s-3.8,8.6-8.6,8.6c-4.7,0-8.6-3.8-8.6-8.6S153,35.2,157.8,35.2z"/>
	<path fill="#3B3B53" d="M48.9,57.7c0-9.5-7.7-17.2-17.2-17.2s-17.2,7.7-17.2,17.2s7.7,17.2,17.2,17.2S48.9,67.2,48.9,57.7z"/>
	<path fill="#3B3B53" d="M88.6,113.9c0,10.1,8,18,18,18s18-8,18-18s-8-18-18-18S88.6,103.8,88.6,113.9z M118.7,113.9
		c0,6.8-5.3,12.1-12.1,12.1c-6.8,0-12.1-5.3-12.1-12.1c0-6.5,5.3-12.1,12.1-12.1C113.4,101.8,118.7,107.1,118.7,113.9z"/>
	<path fill="#3B3B53" d="M50.4,141.4c16.9,0,30.5-13.6,30.5-30.5S67.3,80.5,50.4,80.5s-30.5,13.6-30.5,30.5S33.5,141.4,50.4,141.4z
		 M50.4,86.4c13.6,0,24.6,10.9,24.6,24.6S64,135.5,50.4,135.5s-24.6-10.9-24.6-24.6C25.8,97.3,36.8,86.4,50.4,86.4z"/>
	<path fill="#3B3B53" d="M92.4,137C76.7,137,64,149.7,64,165.4s12.7,28.4,28.4,28.4s28.4-12.7,28.4-28.4S108.1,137,92.4,137z
		 M88.8,187.3c-2.4-0.3-4.4-1.2-6.5-2.1l30.2-29.9c0.9,2.1,1.8,4.1,2.1,6.5L88.8,187.3z M96.2,143.2c2.1,0.3,4.1,1.2,5.9,2.1
		l-29.9,29.9c-0.9-1.8-1.5-3.8-2.1-5.9L96.2,143.2z M90,142.9L69.9,163C71.1,152.7,79.7,144.1,90,142.9z M74.6,179l31.4-31.4
		c1.5,1.2,2.7,2.4,3.8,3.8l-31.4,31.4C77,181.9,75.8,180.5,74.6,179z M95.1,187.6l19.5-19.5C113.4,178.1,105.1,186.4,95.1,187.6z"/>
	<path fill="#3B3B53" d="M156.3,110.9c13,0,23.7-10.6,23.7-23.7s-10.6-23.7-23.7-23.7s-23.7,10.6-23.7,23.7S143.3,110.9,156.3,110.9
		z M164.9,103l7.4-7.4C170.5,98.8,167.8,101.2,164.9,103z M173.2,81.4c0.6,1.8,0.9,3.8,0.9,5.9l0,0L156.3,105l0,0
		c-2.1,0-4.1-0.3-5.9-0.9L173.2,81.4z M171.1,77.2l-24.8,24.8c-1.8-1.2-3.3-2.7-4.4-4.4l24.8-24.8C168.4,74,169.9,75.4,171.1,77.2z
		 M148.6,71.3l-8.3,8.3C142.1,76,145.1,73.1,148.6,71.3z M156.6,69.5c2.1,0,3.8,0.3,5.9,1.2l-22.8,22.8c-0.6-1.8-1.2-3.8-1.2-5.9
		L156.6,69.5z"/>
	<path fill="#4E4E89" d="M135.1,153.3l-0.1,0l0,0l-0.3-0.1l0.3,0.1v0h0L135.1,153.3L135.1,153.3L135.1,153.3
		C135.1,153.3,135.1,153.3,135.1,153.3C135.1,153.3,135.1,153.3,135.1,153.3z M166.3,128.5l-0.3,0.2l0.4-0.1
		C166.3,128.5,166.3,128.5,166.3,128.5z M166.3,166.5l0.1,0.1c0.1,0,0.1-0.1,0.2-0.1L166.3,166.5z"/>
	<path fill="#4E4E89" d="M135.1,153.3l-0.1,0l0,0l-0.3-0.1l0.3,0.1v0h0L135.1,153.3L135.1,153.3L135.1,153.3
		C135.1,153.3,135.1,153.3,135.1,153.3C135.1,153.3,135.1,153.3,135.1,153.3z"/>
	<path fill="#4E4E89" d="M135.1,153.3l-0.1,0l0,0l-0.3-0.1l0.3,0.1v0h0L135.1,153.3L135.1,153.3L135.1,153.3
		C135.1,153.3,135.1,153.3,135.1,153.3C135.1,153.3,135.1,153.3,135.1,153.3z"/>
	<path fill="#4E4E89" d="M135.1,153.3l-0.1,0L135.1,153.3L135.1,153.3L135.1,153.3C135.1,153.3,135.1,153.3,135.1,153.3
		C135.1,153.3,135.1,153.3,135.1,153.3z M135,153c0,0,0,0.1,0,0.2c0,0,0,0,0,0v0h0v0L135,153L135,153z"/>
	<path fill="#4E4E89" d="M185,150.6v-6.6l-8.7-2.4c-0.5-1.8-1-3.4-1.9-5l4.6-8.2l-4.7-4.6l-8.1,4.6c0,0,0.1,0,0.1,0.1l-0.4,0.1
		l0.3-0.2c-2.5-1-3.2-1.3-5-1.8l-2.5-8.6h-6.6l-2.4,9h0c-3.6,1.2-2.3,0.7-5.1,1.8l-8.1-4.8l-4.7,4.6l4.6,8c-0.9,1.6-1.6,3.2-2.2,5
		l-9.3,2.5v6.6l10,2.5v0l-0.3-0.1l0.3,0.1c0-0.1,0-0.2,0-0.2h0l0,0.3l0,0c0,0-0.1,0-0.1,0c0,0,0,0,0,0l0.1-0.3h0h0h0
		c0,0,0,0.3,0,0.3s0,0,0,0v0c0.7,2.1,0.4,1.4,2,4.9v0l-4.8,8.1l4.8,4.7l8.3-4.6l4.4,2.5l0,0l2.5,10h6.6l2.4-9.7
		c2-0.8,3.6-1.7,5.2-2.7l-0.1-0.1l0.3,0c0,0-0.1,0.1-0.2,0.1l7.9,4.4l4.6-4.7l-4.4-7.8c1.3-2.7,1.1-2.1,2.3-5.4v0L185,150.6z
		 M155.2,160.4c-7.1,0-12.8-5.7-12.8-12.8s5.7-12.8,12.8-12.8c7.1,0,12.8,5.7,12.8,12.8S162.3,160.4,155.2,160.4z"/>
</g>
</svg>
