<?xml version="1.0" encoding="utf-8"?>
<!-- Generator: Adobe Illustrator 18.1.1, SVG Export Plug-In . SVG Version: 6.00 Build 0)  -->
<svg version="1.1" id="Layer_1" xmlns="http://www.w3.org/2000/svg" xmlns:xlink="http://www.w3.org/1999/xlink" x="0px" y="0px"
	 viewBox="0 0 200 200" enable-background="new 0 0 200 200" xml:space="preserve">
<g>
	<g>
		<path fill="#4E4E89" d="M5,6v188h190V6H5z M188,187H12V41h176V187z"/>
		<ellipse fill="#3B3B53" cx="21.9" cy="23.4" rx="6.3" ry="6.1"/>
		<ellipse fill="#3B3B53" cx="39.6" cy="23.4" rx="6.3" ry="6.1"/>
		<ellipse fill="#3B3B53" cx="57.1" cy="23.4" rx="6.3" ry="6.1"/>
	</g>
	<g>
		<path fill="#3B3B53" d="M38.7,100c-8.8,0-16-7.2-16-16c0-8.8,7.2-16,16-16c8.8,0,16,7.2,16,16C54.7,92.8,47.6,100,38.7,100z
			 M38.7,72.2c-6.5,0-11.8,5.3-11.8,11.8c0,6.5,5.3,11.8,11.8,11.8c6.5,0,11.8-5.3,11.8-11.8C50.5,77.5,45.2,72.2,38.7,72.2z"/>
		<path fill="#4E4E89" d="M38.9,125c-8.3,0-15.1,6.7-15.1,15c0,8.3,6.7,15,15.1,15s15-6.7,15-15C53.9,131.7,47.2,125,38.9,125z"/>
		<path fill="#4E4E89" d="M93.7,70.1c-8.3,0-15,6.7-15,15c0,8.3,6.7,15,15,15c8.3,0,15.1-6.7,15.1-15C108.8,76.9,102,70.1,93.7,70.1
			z"/>
		<path fill="#3B3B53" d="M66.3,97.5c-8.3,0-15,6.7-15,15.1c0,8.3,6.7,15,15,15s15-6.7,15-15C81.3,104.3,74.6,97.5,66.3,97.5z"/>
		<path fill="#3B3B53" d="M94,156c8.1,0,14.7-6.6,14.7-14.7s-6.6-14.7-14.7-14.7s-14.7,6.6-14.7,14.7S85.9,156,94,156z M99.4,151
			l4.6-4.6C102.9,148.5,101.2,149.9,99.4,151z M104.5,137.6c0.4,1.1,0.6,2.4,0.6,3.7l0,0l-11,11l0,0c-1.3,0-2.6-0.2-3.7-0.6
			L104.5,137.6z M103.2,135l-15.5,15.5c-1.1-0.7-2-1.7-2.8-2.8l15.5-15.5C101.6,133,102.5,133.9,103.2,135z M89.2,131.3l-5.2,5.2
			C85.2,134.3,87,132.4,89.2,131.3z M94.2,130.2c1.3,0,2.4,0.2,3.7,0.7l-14.2,14.2c-0.4-1.1-0.7-2.4-0.7-3.7L94.2,130.2z"/>
	</g>
	<path fill="#3B3B53" d="M166.7,69.7v12.1c0,2.5-2.1,4.5-4.5,4.5h-5.6c-2.5,0-4.5-2.1-4.5-4.5V69.7c-5.9,2.8-10.1,8.8-10.1,15.8
		c0,6.9,4.1,13,10,15.7v51c0,4.1,3.3,7.4,7.4,7.4l0,0c4.1,0,7.4-3.3,7.4-7.4l-0.1-51c5.9-2.8,10-8.8,10-15.7
		C176.8,78.5,172.6,72.5,166.7,69.7z"/>
</g>
</svg>
