<svg viewBox="0 0 100 76" xmlns="http://www.w3.org/2000/svg" xmlns:xlink="http://www.w3.org/1999/xlink"><defs><path d="m3.494 12.229v-.256c0-1.765.92-2.618 2.501-2.618 1.495 0 2.127.712 2.127 1.423 0 1.452-1.121 1.822-2.587 1.822-.747 0-1.638-.142-2.041-.37m-3.449 3.985c0 3.415 2.3 5.18 6.208 5.18 2.644 0 4.886-1.224 5.749-3.387l-.144-.256-2.673-.854-.259.142c-.546.883-1.322 1.423-2.788 1.423-1.61 0-2.644-.854-2.644-2.903v-.712l-.201-1.366c.776 1.309 2.213 1.85 3.593 1.85 2.472 0 4.771-1.594 4.771-4.44 0-2.135-1.466-4.497-5.576-4.497-3.593 0-6.04 1.964-6.04 5.266v4.554m14.947 1.366c0 3.273 2.903 3.558 3.995 3.558.23 0 .517-.028.546-.028l.201-.199.431-2.59-.201-.199h-.201c-.661 0-1.322-.256-1.322-1.025v-16.821l-.201-.199-3.047.399-.201.199v16.907m11.07-1.793v-3.785c0-1.765 1.035-2.675 2.443-2.675 1.552 0 2.385.797 2.385 2.362v6.432c-.69.171-1.782.427-2.271.427-1.38 0-2.558-.797-2.558-2.761m-3.449.597c0 3.33 2.299 5.01 4.656 5.01 1.725 0 3.19-.996 3.794-2.59l.92 2.277.23.171 2.788-.37.172-.227-.834-2.903v-17.476l-.201-.199-3.047.399-.201.199v5.066l.172 1.48c-.862-.569-1.84-.825-2.874-.825-3.104 0-5.576 1.907-5.576 5.18v4.81m18.396.712c0-2.619 3.88-.456 4.628-3.615v4.525c0 0-1.265.598-2.702.598-1.207 0-1.926-.626-1.926-1.508m-3.564 0c0 2.618 2.041 4.298 4.34 4.298 3.076 0 3.995-2.647 3.995-2.647l.92 2.333.23.171 2.788-.37.172-.227-.834-2.903v-6.745c0-3.359-2.558-4.611-5.806-4.611-1.667 0-3.449.512-4.714 1.537l-.057.285 1.495 2.078.287.056c.834-.655 1.869-1.024 2.961-1.024 1.293 0 2.386.398 2.386 2.078v.712c-.546.797-4.11.057-6.122 1.281-1.265.769-2.041 2.02-2.041 3.7m15.694 3.757l.201.199h3.047l.201-.199v-11.186c.259-.085.661-.085.977-.085 1.437 0 2.558.484 2.558.484l.259-.199.316-3.302-.201-.227c-2.213 0-3.478 1.053-4.081 2.647l-.92-2.277-.23-.171-2.788.37-.173.227.834 2.903v10.816m9.916 0l.201.199h3.047l.201-.199v-14.15l-.201-.199-3.047.399-.201.199v13.747m.144-16.907h3.191l.201-.171v-3.074l-.201-.171h-3.191l-.201.171v3.074l.201.171m10.262 11.812v-3.757c0-1.765.948-2.675 2.644-2.675 1.638 0 2.644.911 2.644 2.675v3.757c0 1.765-1.01 2.704-2.644 2.704-1.696 0-2.644-.939-2.644-2.704m-3.449.456c0 3.358 2.616 5.18 6.094 5.18 3.478 0 6.094-1.822 6.094-5.18v-4.64c0-3.358-2.616-5.18-6.094-5.18-3.478 0-6.094 1.822-6.094 5.18v4.64m15.781 4.639l.201.199h3.047l.201-.199v-11.186c.69-.171 2.01-.427 2.5-.427 1.38 0 2.501.797 2.501 2.761v8.852l.201.199h3.047l.201-.199v-9.449c0-3.331-2.242-5.01-4.599-5.01-1.724 0-3.42.996-4.02 2.59l-.92-2.277-.23-.171-2.788.37-.172.227.834 2.903v10.816" id="0" fill="#dadad4"/><path d="m14.537 47.822c-.702-1.116-1.892-2.569-2.87-2.947-.978-.379-.936-.421-1.191-.484-.255-.064-1.871-.337-.106.505 1.764.842 2.599 1.892 2.87 2.4.604 1.132 1.145 3.345 1.499 5.579.418-.017.836-.063 1.255-.174-.347-1.554-.946-4.067-1.456-4.879m5.74 3.558c.68-.653 1.526-1.824 3.295-1.095 1.021.421 1.191 2.105 1.084 2.274-.106.168-.647 1.863.638.379 1.021-1.179-.298-3.221-.659-3.537-.361-.316-1.724-.981-3.423-.421-.127.042.595-2.063.574-3.347-.021-1.284-.191-2.758-1.106-3.6-.914-.842-1.828-.779-2.657 0-.829.779-.68 1.453.255.716.935-.737 1.892-.105 2.126 1.01.234 1.116.34 2.99-.489 5.03-.574 1.414-1.184 2.689-1.586 3.624h1.35c.215-.51.436-.879.597-1.034m10.16 5.754c-.322-.307-.666-.344-.763-.428-.17-.147.447.084.255-1.958-.191-2.042-1.182-4.289-1.318-4.59-.637-1.411-2.024-2.168-.85.189.723 1.453.765 2.421.68 3.874-.077 1.323-1.089 3.482-1.767 4.413.397-.061.794.041 1.191.077.298-.255 1.503-.814 2.171-.153.005.005.01.011.016.016-.031-.48.199-.961.386-1.441m3.085-6.238c-.489-1.053-1.382-2-.043-4.758 1.339-2.758 1.552-2.799 1.786-3.916.234-1.116.234-2.484.234-2.631 0-.147-.064-1.789 1.531-1.937 1.594-.147 2.275.611 2.487.947.212.337.616 1.369.574 1.79-.042.421-.147 2.039.51.021.425-1.305-.595-2.8-.851-3.052-.255-.252-1.148-1.158-2.36-1.01-1.212.147-2.211.442-2.424.547-.213.106-.638-1.558-.723-2.168-.085-.61-.489-2.926.34-4.4.829-1.474-.361-1.095-.744-.337-.383.758-1.191 2.568-.893 4.653.298 2.084 1.318 3.347 1.233 4.694-.085 1.348-.362 3.137-1.276 4.442-.914 1.305-1.424 2.695-1.446 3.03-.021.337-.446-.063-.51-.295-.064-.231-1.446-2.358-1.488-5.116-.043-2.758-3.487-7.095-3.657-7.305-.17-.21-1.488-1.663-.51.337.978 2 1.999 3.579 2.254 4.8.255 1.221.595 6.315 2.105 8.652.888 1.375 1.469 2.889 3.03 4.529h2.302c-.721-.597-1.289-1.154-1.458-1.518m28.15-29.411c-.148.274-.872 1.937-.914 3.642-.044 1.774-.234 3.221-.319 3.642-.085.421-.957 1.579-.999 1.453-.205-.608-.553-1.474-1.701-1.916-1.148-.442-2.339.737-2.445 1.537-.106.8.404.316.425.105.021-.21 1.127-.863 1.935-.147.807.716.085 2.989-.213 3.326-.298.337-.872 1.263-1.637 1.979-.631.59-4.146 5.495-4.146 5.495-.191-.694-.064-8.147 0-9.09.064-.947 1.914-5.874 2.87-7.326.957-1.453.957-3.6.957-4.421 0-.821-.51-.695-.574 0-.064.695-.765 2.779-2.105 4.926-1.34 2.147-2.97 6.355-2.97 6.355h-.141c0 0-1.63-4.208-2.97-6.355-1.339-2.147-2.041-4.232-2.105-4.926-.064-.695-.574-.821-.574 0 0 .821 0 2.968.957 4.421.957 1.453 2.806 6.379 2.87 7.326.064.947.191 8.4 0 9.09 0 0-3.515-4.905-4.146-5.495-.765-.716-1.339-1.642-1.637-1.979-.298-.337-1.021-2.611-.213-3.326.808-.716 1.913-.063 1.935.147.021.21.531.695.425-.105-.106-.8-1.297-1.979-2.445-1.537-1.148.442-1.497 1.308-1.701 1.916-.042.126-.914-1.032-.999-1.453-.085-.421-.274-1.868-.319-3.642-.043-1.705-.766-3.368-.914-3.642-.149-.274-.68-1.347-.383.063.298 1.411.128 3.284.064 3.789-.035.28-.099 1.85.255 3.431.286 1.276.903 2.526 1.573 3.368 1.573 1.979 5.02 7.05 5.74 8.148.723 1.095 1.998 3.537 2.381 6.442.383 2.905.34 4.526.34 4.631 0 .106-1.172-3.255-2.381-4.421-.808-.779-2.723-2.947-5.549-.716-1.892 1.495-.787 3.979-.638 4.295.149.315.978 1.452 1.042 1.515.064.063 1.106 1.158.383-.295-.723-1.452-1.127-4.821 1.403-4.715 2.53.105 3.295 2.779 3.423 3.052.121.26 1.606 3.562 2 8.468 2.094.051 3.094 2.337 4.461 1.318-.041-.079-.037-.203-.023-.48.284-5.366 1.935-9.03 2.062-9.305.128-.274.893-2.947 3.423-3.052 2.53-.105 2.126 3.263 1.403 4.715-.723 1.453.319.358.383.295.064-.063.893-1.2 1.042-1.515.149-.316 1.254-2.8-.638-4.295-2.825-2.232-4.741-.063-5.549.716-1.209 1.166-2.381 4.527-2.381 4.421 0-.105-.042-1.726.341-4.631.383-2.905 1.658-5.347 2.381-6.442.723-1.095 4.167-6.169 5.74-8.148.67-.843 1.287-2.092 1.573-3.368.355-1.581.291-3.152.255-3.431-.064-.505-.234-2.379.064-3.789.298-1.411-.234-.337-.383-.063m-1.275 33.705c-1.121.484-4.977 2.58-6.355 3.391h2.818c1.064-.611 2.573-1.388 4.855-2.549.03-.015.057-.03.086-.044v-1.586c-.566.359-1.066.643-1.403.788m9.673-13.789c-.042 2.758-1.424 4.884-1.488 5.116-.063.232-.489.632-.51.295-.021-.337-.531-1.727-1.446-3.03-.914-1.305-1.19-3.095-1.275-4.442-.085-1.347.935-2.61 1.233-4.694.298-2.084-.51-3.895-.893-4.653-.383-.758-1.573-1.137-.745.337.83 1.474.426 3.789.34 4.4-.085.611-.51 2.274-.722 2.168-.213-.105-1.212-.4-2.423-.547-1.212-.147-2.105.758-2.36 1.01-.255.253-1.275 1.747-.85 3.052.657 2.02.552.4.51-.021-.043-.421.361-1.453.574-1.79.213-.337.893-1.095 2.487-.947 1.595.148 1.531 1.79 1.531 1.937 0 .148 0 1.516.234 2.631.234 1.116.446 1.158 1.786 3.916 1.34 2.758.447 3.706-.042 4.758-.213.459-1.058 1.226-2.052 1.993h2.419c1.924-1.823 2.529-3.496 3.502-5 1.51-2.337 1.849-7.431 2.105-8.652.255-1.221 1.275-2.8 2.253-4.8.978-2-.34-.547-.51-.337-.17.21-3.614 4.547-3.657 7.305m1.02 12.821c-.085-1.452-.042-2.421.681-3.874 1.173-2.358-.213-1.6-.85-.189-.095.211-.61 1.379-.976 2.761v5.378c.703-.203 1.59.262 1.763.45.078.085.249.229.383.514.314-.13.628-.268.943-.405-.662-.756-1.857-3.192-1.942-4.635m13.437.653c.298-2.8.977-6.105 1.764-7.579.271-.508 1.106-1.558 2.87-2.4 1.764-.842.149-.568-.106-.505-.255.063-.213.105-1.191.484-.978.379-2.169 1.831-2.87 2.947-.702 1.116-1.573 5.453-1.722 6.084-.149.631-1.382 4.252-1.148 3.264.234-.99-.298-2.885-.531-3.727-.234-.842-1.148-2.61-1.977-4.653-.829-2.042-.723-3.916-.49-5.03.235-1.116 1.191-1.747 2.126-1.01.936.737 1.085.063.255-.716-.829-.779-1.743-.842-2.657 0-.914.842-1.084 2.316-1.106 3.6-.022 1.284.702 3.389.574 3.347-1.699-.56-3.062.106-3.423.421-.362.316-1.68 2.358-.659 3.537 1.285 1.484.744-.211.638-.379-.106-.169.064-1.853 1.085-2.274 1.769-.73 2.615.442 3.295 1.095.626.6 2.141 4.365.748 7.455.856.186 1.712.282 2.569.481.994-1.476 1.815-3.11 1.956-4.441m-45.39.316c-.213-.092-.492-.24-.811-.426v1.527c2 1.02 3.364 1.725 4.347 2.29h2.819c-1.377-.811-5.234-2.907-6.355-3.391m-18.71-27.901l.423-4.472.425 4.471 1.468-.861-.869 1.455 4.516.419-4.515.421.87 1.454-1.469-.86-.423 4.472-.425-4.471-1.451.845.851-1.439-4.516-.419 4.515-.421-.87-1.454 1.47.86m-15.311 12.936l.423-4.471.425 4.471 1.468-.862-.869 1.455 4.516.419-4.515.421.87 1.454-1.469-.86-.423 4.472-.425-4.471-1.451.845.851-1.438-4.516-.419 4.516-.421-.87-1.454 1.47.86m29.796-26.738l.423-4.472.425 4.472 1.468-.862-.869 1.455 4.515.419-4.515.421.87 1.454-1.47-.86-.423 4.472-.425-4.471-1.451.845.852-1.438-4.515-.419 4.515-.421-.87-1.454 1.47.86m44.48 13.801l-.423-4.472-.425 4.471-1.468-.861.869 1.455-4.516.419 4.516.421-.87 1.454 1.47-.86.423 4.472.426-4.471 1.451.845-.851-1.439 4.516-.419-4.516-.421.87-1.454-1.469.86m15.31 12.936l-.423-4.471-.425 4.471-1.468-.862.869 1.455-4.516.419 4.516.421-.87 1.454 1.47-.86.423 4.472.425-4.471 1.451.845-.852-1.438 4.516-.419-4.515-.421.87-1.454-1.469.86m-29.796-26.738l-.423-4.472-.424 4.472-1.469-.862.868 1.455-4.515.419 4.515.421-.87 1.454 1.469-.86.422 4.472.425-4.471 1.451.845-.851-1.438 4.515-.419-4.515-.421.87-1.454-1.47.86m-15.705-8.91l.423-4.472.425 4.471 1.469-.862-.869 1.455 4.516.419-4.516.421.87 1.454-1.47-.86-.423 4.472-.425-4.471-1.451.845.852-1.439-4.516-.419 4.515-.421-.87-1.454 1.47.86" id="2"/><radialGradient cx="50%" cy="89.2165708%" r="100%" id="1"><stop stop-color="#fff" offset="0%"/><stop stop-color="#fff" stop-opacity="0" offset="100%"/></radialGradient></defs><g fill="none" fill-rule="evenodd"><use xlink:href="#0" transform="translate(1.235 54.606)"/><g><use fill="#989898" xlink:href="#2"/><use fill="url(#1)" xlink:href="#2"/></g></g></svg>