<svg xmlns="http://www.w3.org/2000/svg" version="1.1" id="Layer_1" x="0" y="0" viewBox="0 0 500 500" enable-background="new 0 0 500 500" xml:space="preserve"><g><circle fill="#3B3B53" cx="250" cy="250" r="228.1"/><path fill="#4E4E89" d="M421.9 78.1C376 32.1 314.9 6.8 250 6.8S124 32.1 78.1 78.1 6.8 185.1 6.8 250c0 65 25.3 126 71.2 171.9s107 71.2 171.9 71.2 126-25.3 171.9-71.2 71.2-107 71.2-171.9C493.2 185.1 467.9 124 421.9 78.1zM250 37c117.4 0 213 95.5 213 213 0 38.9-10.5 75.4-28.7 106.8 -8.1 0.7-20.1 2-34.4 1.4 -84.3-3.4-128.4-23.9-153.5-42.2 -19.8-14.5-49.8-19.5-78.6-19.5 -50.4 0-93.5 21.1-115.7 32.2C42.4 304.4 37 277.8 37 250 37 132.6 132.6 37 250 37z"/><g><path fill="#FFFFFF" d="M118.3 255"/><path fill="#FFFFFF" d="M288.2 286.5"/><g><path fill="#FFFFFF" d="M291.6 288.5"/><path fill="#FFFFFF" d="M435.5 267.8c-1.2-4.1-4.5-7.9-8.3-9.6 -4.8-2.1-10-2.4-14.3-2.4 -1.4 0-2.7 0.1-4.1 0.1 -9.8 0.3-19.7 0.3-29 0.3l-12.9 0c-6.3 0-13.8 0-21.2 0.1 -1.6 0-3.4 0.1-5.1 0.3 -0.1 0-0.2-0.1-0.1-0.2 8.2-13.6 19.4-42.3 14.2-92.9 0-0.1 0.1-0.2 0.2-0.1 1.2 0.7 2.6 1.1 3.9 1.1 2 0 4-0.8 5.5-2.4 2.8-3 3.1-7.7 0-10.6 -38.1-35.5-77-50.5-114.1-55.3 -0.1 0-0.1-0.1-0.1-0.1v-9c0 0 0-0.1 0.1-0.1 3.1-1.9 4.2-5.1 4.2-8.7 0-5.8-4.9-10.5-10.7-10.5 -5.8 0-10.3 4.7-10.3 10.5 0 3.7 3 6.9 5.1 8.8 0 0 0 0.1 0 0.1v7.7c0 0.1-0.1 0.1-0.1 0.1 -13.8-1.2-28-0.7-39.9 0.4 -47 4.7-80.1 22-81.4 22.7 -3.7 2-5.1 6.5-3.2 10.1 1.9 3.7 6.4 5.1 10.1 3.1 0.1 0 1-0.5 2.9-1.4 0 0 0.1 0 0.1 0 10.3 10 47.7 52.6 19.9 125.6 0 0.1-0.1 0.1-0.1 0.1 -1.6-0.2-3-0.3-4.3-0.3 -1.4 0-2.9 0.1-4.3 0.1 -1.6 0.1-3.1 0.2-4.7 0.4 -4.2 0.3-8.6 0.6-12.2 0.2 -4.1-0.4-6-2.9-5.5-7.5 0.3-2.9 0.8-5.8 1.3-8.5 1.3-7.1 2.5-13.7-0.7-21.8 -3.8-9.6-13.6-16.3-24-16.3 -9.2 0-16.6 5.3-19.7 14.1 -2.5 7.3-1.3 16.1 3 21.4 3.5 4.2 9 5.5 12.5 2.7 2.3-1.9 3.8-6 3.7-10 -0.1-3.2-1.2-5.7-3.2-7.1 -1.5-1.1-4.4-1.2-6.1-0.1 0.2-0.7 0.5-1.3 0.9-1.8 1.8-2.2 4.3-2.7 6.2-2.7 0.6 0 1.2 0.1 1.8 0.1 3.8 0.6 7 2.9 8.3 6.1 1.6 3.8 0.7 8.7-0.3 13.3 -5.2 23.4-8.9 48.9-2.8 71 0 0.1 0.1 0.1 0.2 0.1 45.4-13.6 105.1-22.1 147.4 8.9 22.8 16.7 52.8 26.7 81.5 32.6v0.4c0 2.4 0 5 0 7.9 0 6.3 1.9 72.8 0.2 76.9 0 0.1 0 0.2 0.1 0.2 2.7-0.3 5.6-0.6 8.3-0.8 2.8-0.3 5.7-0.5 8.5-0.5 2.7 0 5.5 0.1 8.3 0.4 2.7 0.2 5.3 0.6 7.9 0.9 0.1 0 0.1 0 0.1-0.1 -0.1-2-0.2-4.5-0.3-7.4 -0.8-28.9-1.7-57.5-0.6-86.4 0.3-6.5 3.6-11.2 6.5-16.7 3.1-5.8 5.5-11.9 7.9-18 2.3-5.9 4.6-11.9 7.7-17.6 5.6-10.7 15.8-19 27.1-22.3 1.3-0.4 5.4-1.3 8.7-1.3 2.8 0 3.7 0.7 3.9 1 0 0 0 0 0 0 0.2 0.3 0.3 0.8 0.1 1.6 -1.1 4.2 0.5 9 3.8 11.4 1.9 1.3 4.2 1.7 6.2 0.9 1.4-0.5 2.7-1.6 3.8-3.2C436.1 274.9 436.6 271.4 435.5 267.8zM238.5 281.3c0 0.1 0 0.1-0.1 0.1 -2.2 0-7.5 0.1-11.1 0.1 -3.9 0-8 0.1-11.9 0.1 -11.3 0-22.8-0.1-34.1-1 -6.2-0.5-13.2-1-17.3-6.4 -0.3-0.4-0.6-0.8-0.9-1.3 -0.8-1.4-1.6-3.1-2.3-4.9 -0.6-1.4-0.9-2.8-1.5-4.1 0-0.1 0-0.1 0-0.2 28.3-15.9 53.7-23.3 79.2-23.6 0.1 0 0.1 0.1 0.1 0.1V281.3zM320.4 276.8c-4.6 3.6-11.9 4.8-17.1 4.9 -15 0.1-29.6 0-44.7-0.1 -2.9 0-5.2 0-8.3 0 -0.1 0-0.1-0.1-0.1-0.1v-40.9c0-0.1 0.1-0.1 0.1-0.1 31.8 1.4 56.7 9.7 77.7 24.8 0.1 0 0.1 0.1 0 0.2 -0.7 1.1-1.6 2.3-2.2 3.4C324.3 271.9 322.9 274.9 320.4 276.8z"/><g><path fill="#FFFFFF" d="M174.9 398.9c0 3.6 0.1 7.5 0.2 11.8 0.1 4.3 0.2 8.6 0.4 13 0.1 4.3 0.3 8.4 0.5 12.2 0 0.1-0.1 0.1-0.1 0.1 -2.4-0.4-5.3-0.7-8.5-0.9 -3.3-0.2-6.2-0.4-8.7-0.4 -3 0-6 0.1-9 0.4 -3 0.3-5.9 0.6-8.8 0.9 -0.1 0-0.1-0.1-0.1-0.1 0.6-5.8 1-12.2 1.2-19.3 0.2-7.1 0.4-14.3 0.4-21.5v-14.4c0-8.4-0.1-16.8-0.1-25.1 -0.1-8.3-0.5-16.8-1.3-25.6 0-0.1 0.1-0.1 0.1-0.1 3.1 0.4 6.2 0.7 9.2 0.9 3.1 0.2 6.2 0.4 9.3 0.4 5.6 0 11.2-0.4 16.7-1.3 0.1 0 0.2 0.1 0.1 0.1 -0.3 3.8-0.5 7.7-0.7 11.8 -0.2 4.1-0.4 8.2-0.5 12.2 -0.1 4-0.3 7.9-0.3 11.6 0 3.6-0.1 6.8-0.1 9.7 0 0.1 0.1 0.2 0.2 0.1l4.5-5.1c3.9-4.3 7.1-7.9 9.9-11 2.7-3.1 5.3-6.2 7.6-9.1 2.4-3 4.7-6 7.1-9.1 2.4-3.1 5.1-6.8 8.3-11 0 0 0.1-0.1 0.1 0 4 0.9 8.1 1.3 12.2 1.3 1.8 0 3.5-0.1 5.1-0.3 1.6-0.2 3.2-0.5 5-1 0.1 0 0.2 0 0.2 0.1v1.9c0 0 0 0.1 0 0.1 -1.7 1.7-3.4 3.3-5.2 4.9 -1.8 1.6-3.6 3.3-5.3 5.1 -8.4 8.5-16.8 17.5-25.1 26.9 0 0 0 0.1 0 0.1 1.9 3.5 4 7.4 6.5 11.7 2.5 4.3 5 8.7 7.7 13.1 2.7 4.4 5.3 8.8 7.9 13.1 2.6 4.3 4.9 8.1 7 11.6 2.2 3.4 4 6.2 5.4 8.5 1.4 2.3 2.3 3.7 2.7 4.2 0.4 0.5 0.8 1 1.3 1.6 0.4 0.5 0.7 1 0.7 1.3v1.8c0 0.1-0.1 0.1-0.1 0.1 -0.9-0.1-2-0.2-3.4-0.4 -1.4-0.1-3-0.3-4.6-0.4 -1.6-0.1-3.3-0.3-5-0.4 -1.7-0.1-3.4-0.1-5-0.1 -3.1 0-6.5 0.1-10.5 0.3 -3.9 0.2-7.3 0.5-10.2 1 -0.1 0-0.1 0-0.1-0.1 -0.6-1.2-1.3-2.6-2.1-4.1 -0.8-1.6-1.7-3.3-2.6-5.1 -0.9-1.8-1.8-3.6-2.8-5.4 -1-1.8-1.9-3.5-2.8-5.1L175 390.7c-0.1-0.1-0.2-0.1-0.2 0.1C174.8 392.9 174.8 395.6 174.9 398.9z"/><path fill="#FFFFFF" d="M309.6 421.1c-0.5 1-0.9 2-1.3 3 -0.4 1-0.8 2-1.1 3 -0.3 1-0.7 2.2-1.1 3.6 0 0 0 0.1-0.1 0.1 -3.9 1.9-8.2 3.2-12.9 4.1 -4.6 0.9-9.2 1.3-13.6 1.3 -5.8 0-10.9-0.6-15.3-1.8 -4.4-1.2-8.1-2.8-11.2-4.9 -3.1-2.1-5.7-4.5-7.6-7.3 -2-2.8-3.6-5.6-4.7-8.5 -1.2-2.9-2-5.8-2.4-8.7 -0.4-2.9-0.7-5.6-0.7-8.1 0-5.3 0.8-10.4 2.4-15.1 1.6-4.7 4-8.9 7.3-12.4s7.4-6.3 12.3-8.4c4.9-2.1 10.8-3.1 17.6-3.1 5.9 0 11.5 1.1 16.8 3.4 5.3 2.3 9.7 5.8 13.3 10.5 3 4.3 4.8 8.8 5.5 13.6 0.7 4.7 1.1 9.3 1.3 13.7 0 0.1-0.1 0.1-0.1 0.1 -1.9-0.1-4-0.2-6.2-0.3 -2.3-0.1-4.5-0.1-6.7-0.1 -10.6 0-21.3 0.1-31.9 0.4 -0.1 0-0.1 0.1-0.1 0.1 0 2.9 0.4 5.7 1 8.4 0.7 2.7 1.8 5.2 3.3 7.3 1.5 2.2 3.5 3.9 5.9 5.2 2.4 1.3 5.2 1.9 8.5 1.9 1.6 0 3.3-0.2 5.2-0.7s3.7-1 5.5-1.8c1.8-0.7 3.5-1.6 5.1-2.7 1.6-1 3-2.1 4.1-3.4 0-0.1 0.1-0.1 0.2 0l3.6 3.8c0 0 0 0.1 0 0.1C310.7 419 310.1 420.1 309.6 421.1zM285.6 381.7c-0.1-2.5-0.3-4.7-0.8-6.7 -0.5-2-1.3-3.7-2.4-5 -1.1-1.3-2.7-1.9-4.7-1.9 -2.2 0-3.9 0.7-5 2 -1.2 1.3-2.1 3-2.6 5 -0.5 2-0.9 4.3-1 6.7 -0.1 2.4-0.1 4.8-0.1 7 0 0.1 0.1 0.1 0.1 0.1h16.5c0.1 0 0.1-0.1 0.1-0.1C285.7 386.5 285.7 384.1 285.6 381.7z"/></g></g><path fill="#FFFFFF" d="M172.8 328.8"/><g><path fill="#FFFFFF" d="M377 351.8h-1.7v-12.9h-4.6v-1.5h10.8v1.5H377V351.8z"/><path fill="#FFFFFF" d="M390.1 351.8l-4.9-12.8h-0.1c0.1 1 0.1 2.2 0.1 3.6v9.2h-1.5v-14.4h2.5l4.6 11.9h0.1l4.6-11.9h2.5v14.4h-1.7v-9.3c0-1.1 0-2.2 0.1-3.5h-0.1l-4.9 12.8H390.1z"/></g></g></g></svg>