<?xml version="1.0" encoding="utf-8"?>
<!-- Generator: Adobe Illustrator 18.1.1, SVG Export Plug-In . SVG Version: 6.00 Build 0)  -->
<svg version="1.1" id="Layer_1" xmlns="http://www.w3.org/2000/svg" xmlns:xlink="http://www.w3.org/1999/xlink" x="0px" y="0px"
	 viewBox="0 0 200 200" enable-background="new 0 0 200 200" xml:space="preserve">
<path fill="#FFFFFF" stroke="#000000" stroke-width="2.797" stroke-linecap="round" stroke-miterlimit="10" d="M119.6,118.8"/>
<path fill="#FFFFFF" d="M193.9,108.2c-0.6-2.1-2.3-4.1-4.3-5c-2.5-1.1-5.1-1.2-7.4-1.2c-0.7,0-1.4,0-2.1,0c-5.1,0.1-10.2,0.2-15,0.2
	h-6.6c-3.3,0-7.1,0-10.9,0.1c-0.8,0-1.7,0-2.6,0.2c0,0-0.1,0-0.1-0.1c4.2-7,10-21.8,7.3-47.9c0,0,0-0.1,0.1-0.1
	c0.6,0.4,1.3,0.6,2,0.6c1,0,2.1-0.4,2.8-1.2c1.4-1.6,1.6-4,0-5.4c-19.7-18.4-39.7-26.2-58.9-28.6c0,0,0,0,0-0.1v-4.6c0,0,0,0,0,0
	c1.6-1,2.2-2.6,2.2-4.5c0-3-2.6-5.4-5.6-5.4s-5.3,2.4-5.3,5.4c0,1.9,1.5,3.6,2.6,4.6l0,0v4c0,0,0,0.1-0.1,0.1
	c-7.1-0.6-14.5-0.4-20.6,0.2c-24.2,2.4-41.3,11.3-42,11.7c-1.9,1-2.6,3.4-1.6,5.2s3.3,2.6,5.2,1.6c0,0,0.5-0.3,1.5-0.7
	c0,0,0,0,0.1,0c5.3,5.2,24.6,27.1,10.2,64.8c0,0,0,0-0.1,0c-0.8-0.1-1.6-0.1-2.2-0.1c-0.8,0-1.5,0-2.2,0.1c-0.8,0-1.6,0.1-2.4,0.2
	c-2.2,0.2-4.4,0.3-6.3,0.1c-2.1-0.2-3.1-1.5-2.9-3.8c0.1-1.5,0.4-3,0.6-4.4c0.6-3.6,1.3-7.1-0.3-11.2c-2-5-7-8.4-12.4-8.4
	c-4.8,0-8.6,2.7-10.2,7.3C5.2,85.3,5.8,89.8,8,92.6c1.8,2.2,4.6,2.8,6.4,1.4c1.2-1,2-3.1,1.9-5.1c0-1.6-0.6-3-1.6-3.7
	c-0.8-0.6-2.3-0.6-3.1-0.1c0.1-0.4,0.3-0.6,0.5-0.9c0.9-1.2,2.2-1.4,3.2-1.4c0.3,0,0.6,0,0.9,0.1c2,0.3,3.6,1.5,4.3,3.1
	c0.8,2,0.4,4.5-0.2,6.9c-2.7,12.1-4.6,25.2-1.4,36.6c0,0,0,0,0.1,0c23.4-7,54.2-11.4,76.1,4.6c11.8,8.6,27.2,13.8,42,16.8v0.2
	c0,1.2,0,2.6,0,4c0,3.2,1,37.6,0.1,39.7c0,0,0,0.1,0.1,0.1c1.4-0.2,2.9-0.3,4.3-0.4c1.4-0.2,3-0.2,4.4-0.2c1.4,0,2.9,0,4.3,0.2
	c1.4,0.1,2.8,0.3,4.1,0.5c0,0,0.1,0,0.1-0.1c0-1-0.1-2.3-0.1-3.8c-0.4-14.9-0.9-29.7-0.3-44.6c0.1-3.4,1.8-5.8,3.4-8.6
	c1.6-3,2.8-6.2,4.1-9.3c1.2-3,2.4-6.2,4-9.1c2.9-5.5,8.2-9.8,14-11.5c0.6-0.2,2.8-0.7,4.5-0.7c1.5,0,1.9,0.4,2,0.5l0,0
	c0.1,0.2,0.2,0.4,0,0.8c-0.6,2.2,0.2,4.6,2,5.9c1,0.7,2.2,0.9,3.2,0.5c0.7-0.3,1.4-0.8,2-1.7C194.2,111.8,194.4,110,193.9,108.2z
	 M92.2,115.2C92.2,115.2,92.1,115.2,92.2,115.2c-1.2,0.1-4,0.1-5.8,0.1c-2,0-4.1,0-6.2,0c-5.8,0-11.8,0-17.6-0.5
	c-3.2-0.3-6.8-0.5-9-3.3c-0.2-0.2-0.3-0.4-0.4-0.7c-0.4-0.7-0.8-1.6-1.2-2.5c-0.3-0.7-0.4-1.4-0.8-2.1c0,0,0-0.1,0-0.1
	c14.6-8.2,27.7-12,40.9-12.2c0,0,0.1,0,0.1,0.1C92.2,94,92.2,115.2,92.2,115.2z M134.4,112.8c-2.4,1.8-6.1,2.5-8.8,2.5
	c-7.8,0-15.3,0-23,0c-1.5,0-2.7,0-4.3,0c0,0-0.1,0-0.1-0.1V94.2c0,0,0-0.1,0.1-0.1c16.4,0.7,29.2,5,40.1,12.8c0,0,0,0,0,0.1
	c-0.3,0.6-0.8,1.2-1.1,1.8C136.5,110.3,135.8,111.8,134.4,112.8z"/>
<path fill="#FFFFFF" d="M59.4,175.8c0,1.9,0.1,3.9,0.1,6.1s0.1,4.4,0.2,6.7c0.1,2.2,0.2,4.4,0.3,6.3c0,0,0,0.1-0.1,0.1
	c-1.2-0.2-2.7-0.4-4.4-0.5c-1.7-0.1-3.2-0.2-4.5-0.2c-1.5,0-3.1,0.1-4.6,0.2c-1.5,0.2-3,0.3-4.6,0.4c0,0-0.1,0-0.1-0.1
	c0.3-3,0.5-6.3,0.6-10c0.1-3.7,0.2-7.4,0.2-11.1v-7.4c0-4.3,0-8.6-0.1-12.9c0-4.3-0.3-8.7-0.7-13.2c0,0,0-0.1,0.1-0.1
	c1.6,0.2,3.2,0.4,4.8,0.5c1.6,0.1,3.2,0.2,4.8,0.2c2.9,0,5.8-0.2,8.6-0.7c0,0,0.1,0,0.1,0.1c-0.2,2-0.3,4-0.4,6.1
	c-0.1,2.1-0.2,4.2-0.3,6.3c-0.1,2.1-0.1,4-0.2,6c0,1.8,0,3.5,0,5c0,0.1,0.1,0.1,0.1,0l2.3-2.6c2-2.2,3.7-4.1,5.1-5.7
	c1.4-1.6,2.7-3.2,4-4.7c1.2-1.5,2.4-3.1,3.7-4.7c1.2-1.6,2.6-3.5,4.3-5.7c0,0,0,0,0.1,0c2.1,0.4,4.2,0.7,6.3,0.7
	c0.9,0,1.8,0,2.6-0.2c0.8-0.1,1.7-0.3,2.6-0.5c0,0,0.1,0,0.1,0.1v1v0c-0.9,0.9-1.8,1.7-2.7,2.6c-1,0.8-1.8,1.7-2.7,2.6
	c-4.3,4.4-8.6,9-13,13.9c0,0,0,0,0,0.1c1,1.8,2.1,3.8,3.4,6s2.6,4.5,4,6.8s2.7,4.6,4,6.7c1.3,2.2,2.5,4.2,3.6,6
	c1.1,1.7,2,3.2,2.8,4.4c0.7,1.2,1.2,1.9,1.4,2.2c0.2,0.2,0.4,0.5,0.6,0.8c0.2,0.3,0.4,0.5,0.4,0.6v0.9c0,0,0,0.1-0.1,0.1
	c-0.4,0-1-0.1-1.7-0.2c-0.7-0.1-1.5-0.2-2.4-0.2c-0.8-0.1-1.7-0.2-2.6-0.2c-0.9,0-1.8-0.1-2.6-0.1c-1.6,0-3.4,0-5.4,0.2
	s-3.8,0.3-5.3,0.5c0,0,0,0-0.1,0c-0.3-0.6-0.7-1.3-1.1-2.1c-0.4-0.8-0.9-1.7-1.4-2.6c-0.4-0.9-1-1.8-1.4-2.8c-0.5-1-1-1.8-1.4-2.6
	l-7.4-13c0,0-0.1,0-0.1,0C59.3,172.7,59.3,174.1,59.4,175.8z"/>
<path fill="#FFFFFF" d="M128.9,187.3c-0.2,0.5-0.5,1-0.7,1.5c-0.2,0.5-0.4,1-0.6,1.6c-0.2,0.5-0.4,1.2-0.6,1.8c0,0,0,0,0,0
	c-2,1-4.2,1.7-6.6,2.1c-2.4,0.4-4.8,0.7-7,0.7c-3,0-5.6-0.3-7.9-0.9c-2.2-0.6-4.2-1.4-5.8-2.5c-1.6-1.1-2.9-2.3-4-3.8
	c-1-1.4-1.8-2.9-2.4-4.4c-0.6-1.5-1-3-1.3-4.5c-0.2-1.5-0.4-2.9-0.4-4.2c0-2.8,0.4-5.4,1.2-7.8c0.8-2.4,2.1-4.6,3.8-6.4
	c1.7-1.8,3.8-3.2,6.4-4.3c2.6-1.1,5.6-1.6,9.1-1.6c3.1,0,6,0.6,8.7,1.8c2.7,1.2,5,3,6.8,5.4c1.5,2.2,2.5,4.5,2.8,7
	c0.4,2.4,0.6,4.8,0.7,7.1c0,0,0,0.1-0.1,0.1c-1,0-2.1-0.1-3.2-0.2c-1.2,0-2.3-0.1-3.4-0.1c-5.5,0-11,0.1-16.5,0.2c0,0-0.1,0-0.1,0.1
	c0,1.5,0.2,3,0.5,4.3c0.4,1.4,0.9,2.7,1.7,3.8c0.8,1.1,1.8,2,3,2.7c1.2,0.7,2.7,1,4.4,1c0.8,0,1.7-0.1,2.7-0.4
	c1-0.2,1.9-0.5,2.8-0.9c0.9-0.4,1.8-0.8,2.6-1.4c0.8-0.5,1.5-1.1,2.1-1.8c0,0,0.1,0,0.1,0l1.8,2c0,0,0,0,0,0.1
	C129.4,186.2,129.1,186.8,128.9,187.3z M116.5,166.9c0-1.3-0.2-2.4-0.4-3.5c-0.2-1-0.7-1.9-1.2-2.6c-0.6-0.7-1.4-1-2.4-1
	c-1.1,0-2,0.4-2.6,1s-1,1.6-1.3,2.6c-0.3,1-0.4,2.2-0.5,3.5c0,1.2-0.1,2.4-0.1,3.6c0,0,0,0.1,0.1,0.1h8.5c0,0,0.1,0,0.1-0.1
	C116.6,169.4,116.6,168.2,116.5,166.9z"/>
<path fill="#FFFFFF" stroke="#000000" stroke-width="1.254" stroke-linecap="round" stroke-miterlimit="10" d="M57.2,139.7"/>
<path fill="#FFFFFF" d="M162.6,151.5h-0.9v-6.7h-2.4v-0.8h5.6v0.8h-2.4V151.5z"/>
<path fill="#FFFFFF" d="M169.3,151.5l-2.5-6.6h0c0,0.5,0.1,1.2,0.1,1.9v4.7H166v-7.4h1.3l2.4,6.2h0l2.4-6.2h1.3v7.4h-0.9v-4.8
	c0-0.6,0-1.2,0.1-1.8h0l-2.6,6.6H169.3z"/>
</svg>
