<?xml version="1.0" encoding="utf-8"?>
<!-- Generator: Adobe Illustrator 18.1.1, SVG Export Plug-In . SVG Version: 6.00 Build 0)  -->
<svg version="1.1" id="Layer_1" xmlns="http://www.w3.org/2000/svg" xmlns:xlink="http://www.w3.org/1999/xlink" x="0px" y="0px"
	 viewBox="0 0 200 200" enable-background="new 0 0 200 200" xml:space="preserve">
<g>
	<rect x="128.6" y="179.9" fill="#4E4E89" width="18.9" height="3.8"/>
	<g transform="translate(0,-952.36223)">
		<polygon fill="#4E4E89" points="19.4,1057.7 19.5,1034.7 25.5,1040.7 40.2,1026 42.3,1028.1 42.4,1018.5 32.8,1018.6 34.9,1020.7 
			26.2,1029.4 23.4,1026.7 29.4,1020.7 23.4,1014.7 46.3,1014.6 46.2,1037.5 40.2,1031.6 25.5,1046.2 23.4,1044.1 23.3,1053.7 
			32.9,1053.7 30.8,1051.5 39.5,1042.8 42.3,1045.6 36.4,1051.5 42.3,1057.5 		"/>
	</g>
	<g transform="translate(0,-952.36223)">
		<polygon fill="#4E4E89" points="181.1,1057.7 158.1,1057.5 164.1,1051.5 158.1,1045.6 160.9,1042.8 169.6,1051.5 167.5,1053.7 
			177.1,1053.7 177,1044.1 174.9,1046.2 160.3,1031.6 154.3,1037.5 154.1,1014.6 177.1,1014.7 171.1,1020.7 177.1,1026.7 
			174.3,1029.4 165.6,1020.7 167.7,1018.6 158.1,1018.5 158.1,1028.1 160.3,1026 174.9,1040.7 180.9,1034.7 		"/>
	</g>
	<path fill="none" stroke="#3B3B53" stroke-width="5.0203" stroke-miterlimit="10" d="M48.6,121.8c19.5,0,35.3,15.9,35.3,35.5
		s-15.8,35.5-35.3,35.5S13.3,177,13.3,157.4S29.1,121.8,48.6,121.8z M48.6,121.8c10.8,0,19.6,15.9,19.6,35.5s-8.8,35.5-19.6,35.5
		S29,177,29,157.4S37.8,121.8,48.6,121.8z M48.6,194.2v-73.6 M17.8,175.4h61.6 M12,157.4h73.2 M17.8,139.3h61.6"/>
	<g>
		<path fill="#3B3B53" d="M100.1,75.2c-15.9,0-31.7-3.7-38.6-11.7v12.6c0,7.1,17.3,12.6,38.6,12.6s38.6-5.7,38.6-12.6V63.5
			C131.8,71.5,115.9,75.2,100.1,75.2z"/>
		<path fill="#3B3B53" d="M100.1,50.9c-15.9,0-31.7-3.7-38.6-11.7v12.6c0,7.1,17.3,12.6,38.6,12.6s38.6-5.7,38.6-12.6V39.3
			C131.8,47.3,115.9,50.9,100.1,50.9z"/>
		<path fill="#3B3B53" d="M139.1,23.1c0,11.7-19.9,17.2-38.3,17.2c-13.1,0-26.9-2.8-33.8-8.6c-0.1,0-0.1-0.1-0.2-0.2
			c-3.1-2.4-5-5.4-5-9c0-11.9,19.9-17.2,38.3-17.2c12.9,0,26.5,2.6,33.5,8.3C137,16.1,139.1,19.2,139.1,23.1z"/>
	</g>
	<g>
		<path fill="#4E4E89" d="M117.8,194.6H188V169h-70.2V194.6z M120.8,172.8h64.3V191h-64.3V172.8z"/>
		<path fill="#4E4E89" d="M117.8,120.3v25.6H188v-25.6H117.8z M147.4,135h-18.8v-3.8h18.9L147.4,135L147.4,135z M169.2,137.4h-3
			v-8.7h3V137.4z M178.8,137.4h-3v-8.7h3V137.4z"/>
		<rect x="175.9" y="177.5" fill="#4E4E89" width="3" height="8.8"/>
		<rect x="166.4" y="177.5" fill="#4E4E89" width="3" height="8.8"/>
		<path fill="#3B3A53" d="M117.8,144.3v25.6H188v-25.6H117.8z M147.4,159h-18.8v-3.8h18.9L147.4,159L147.4,159z M169.2,161.4h-3
			v-8.7h3V161.4z M178.8,161.4h-3v-8.7h3V161.4z"/>
	</g>
</g>
</svg>
